<?xml version="1.0" encoding="utf-8"?>
<!-- Generator: Adobe Illustrator 16.0.0, SVG Export Plug-In . SVG Version: 6.00 Build 0)  -->
<!DOCTYPE svg PUBLIC "-//W3C//DTD SVG 1.1//EN" "http://www.w3.org/Graphics/SVG/1.1/DTD/svg11.dtd">
<svg version="1.1" id="Layer_1" xmlns="http://www.w3.org/2000/svg" xmlns:xlink="http://www.w3.org/1999/xlink" x="0px" y="0px"
	 width="550px" height="550px" viewBox="0 0 550 550" enable-background="new 0 0 550 550" xml:space="preserve">
<g id="Layer_1_1_" display="none">
	
		<rect x="140.597" y="112.099" display="inline" fill="none" stroke="#720D3F" stroke-miterlimit="10" width="247.488" height="298.485"/>
	<line display="inline" fill="none" stroke="#720D3F" stroke-miterlimit="10" x1="386.085" y1="112.099" x2="330" y2="406"/>
	<line display="inline" fill="none" stroke="#720D3F" stroke-miterlimit="10" x1="140.597" y1="112.099" x2="84.512" y2="406"/>
</g>
<g id="Layer_1_copy">
	<g>
		<g>
			<circle fill="#D6D6D6" stroke="#000000" stroke-width="20" stroke-miterlimit="10" cx="275.568" cy="275.943" r="261.832"/>
			<g>
				<path fill="#F43447" stroke="#161616" stroke-width="8" stroke-miterlimit="10" d="M462.879,153.851
					c0,0,34.364,193.472-65.225,313.909l-258.813-3.276c0,0,111.105-140.298,63.117-313.938L462.879,153.851z"/>
				<path fill="#EA871B" stroke="#161616" stroke-width="8" stroke-miterlimit="10" d="M443.358,130.154
					c0,0,34.364,193.472-65.225,313.909l-258.813-3.278c0,0,111.104-140.295,63.116-313.936L443.358,130.154z"/>
				<path fill="#D756ED" stroke="#161616" stroke-width="8" stroke-miterlimit="10" d="M424.473,109.345
					c0,0,34.365,193.472-65.223,313.91l-258.813-3.278c0,0,111.105-140.295,63.116-313.937L424.473,109.345z"/>
				<path fill="none" stroke="#720D3F" stroke-miterlimit="10" d="M461.948,155.952"/>
				<path fill="#40C5F4" stroke="#161616" stroke-width="8" stroke-miterlimit="10" d="M402.604,85.207
					c0,0,36.813,193.02-61.244,314.71H82.527c0,0,109.318-141.691,59.134-314.71H402.604z"/>
				<ellipse cx="174.901" cy="112.503" rx="6.093" ry="10.903"/>
				<ellipse cx="195.462" cy="112.503" rx="6.094" ry="10.903"/>
				<ellipse cx="216.548" cy="112.503" rx="6.093" ry="10.903"/>
				<ellipse cx="236.577" cy="112.503" rx="6.094" ry="10.903"/>
				<ellipse cx="257.137" cy="112.503" rx="6.094" ry="10.903"/>
				<ellipse cx="278.225" cy="112.503" rx="6.094" ry="10.903"/>
				<ellipse cx="299.052" cy="112.503" rx="6.095" ry="10.903"/>
				<ellipse cx="319.611" cy="112.503" rx="6.094" ry="10.903"/>
				<path d="M346.792,112.503c0,6.022-2.726,10.903-6.094,10.903c-3.364,0-6.093-4.881-6.093-10.903s2.729-10.905,6.093-10.905
					C344.066,101.598,346.792,106.48,346.792,112.503z"/>
				<ellipse cx="360.729" cy="112.503" rx="6.094" ry="10.903"/>
				<ellipse cx="381.288" cy="112.503" rx="6.093" ry="10.903"/>
				
					<line fill="none" stroke="#020102" stroke-width="5" stroke-linecap="round" stroke-linejoin="round" stroke-miterlimit="10" x1="181.641" y1="173.717" x2="385.136" y2="173.717"/>
				
					<line fill="none" stroke="#020102" stroke-width="5" stroke-linecap="round" stroke-linejoin="round" stroke-miterlimit="10" x1="179.779" y1="154.69" x2="383.273" y2="154.69"/>
				
					<line fill="none" stroke="#020102" stroke-width="5" stroke-linecap="round" stroke-linejoin="round" stroke-miterlimit="10" x1="180.694" y1="196.634" x2="384.188" y2="196.634"/>
				
					<line fill="none" stroke="#020102" stroke-width="5" stroke-linecap="round" stroke-linejoin="round" stroke-miterlimit="10" x1="178.765" y1="219.479" x2="382.257" y2="219.479"/>
				
					<line fill="none" stroke="#020102" stroke-width="5" stroke-linecap="round" stroke-linejoin="round" stroke-miterlimit="10" x1="175.142" y1="242.323" x2="378.637" y2="242.323"/>
				
					<line fill="none" stroke="#020102" stroke-width="5" stroke-linecap="round" stroke-linejoin="round" stroke-miterlimit="10" x1="169.862" y1="263.411" x2="373.354" y2="263.411"/>
				
					<line fill="none" stroke="#020102" stroke-width="5" stroke-linecap="round" stroke-linejoin="round" stroke-miterlimit="10" x1="148.531" y1="334.754" x2="221.846" y2="334.754"/>
				
					<line fill="none" stroke="#020102" stroke-width="5" stroke-linecap="round" stroke-linejoin="round" stroke-miterlimit="10" x1="266.129" y1="354.529" x2="140.417" y2="354.529"/>
				
					<line fill="none" stroke="#020102" stroke-width="5" stroke-linecap="round" stroke-linejoin="round" stroke-miterlimit="10" x1="129.553" y1="372.981" x2="256.315" y2="372.981"/>
			</g>
		</g>
		<polygon fill="#32D809" stroke="#000000" stroke-width="8" stroke-miterlimit="10" points="55.537,281.833 81.942,263.326 
			100.808,290.241 206.433,216.223 225.295,243.135 93.263,335.664 		"/>
	</g>
</g>
</svg>
